<svg xmlns="http://www.w3.org/2000/svg" xmlns:xlink="http://www.w3.org/1999/xlink" xmlns:lucid="lucid" width="394" height="267"><g transform="translate(-84 -724)" lucid:page-tab-id="0_0"><path d="M80 700h240v20H80z" stroke="#000" stroke-opacity="0" stroke-width="2" fill="#fff" fill-opacity="0"/><use xlink:href="#a" transform="matrix(1,0,0,1,85,705) translate(0 14.4)"/><use xlink:href="#b" transform="matrix(1,0,0,1,85,705) translate(60.85000000000001 14.4)"/><use xlink:href="#c" transform="matrix(1,0,0,1,85,705) translate(115.75000000000001 14.4)"/><path d="M100 740h360v233.4H100z" stroke="#000" stroke-width="2" fill="#fff"/><path d="M284.07 748.27H451v33.33H284.07z" stroke="#000" stroke-width="2" fill="#fff"/><use xlink:href="#d" transform="matrix(1,0,0,1,289.06779660935956,753.2666666666668) translate(7.199999999999989 15.6)"/><use xlink:href="#e" transform="matrix(1,0,0,1,289.06779660935956,753.2666666666668) translate(85.85 15.6)"/><path d="M108.74 781.6c6.88 5.53 11.23 5.53 13.8 5.53 4.14 0 9.65-5.53 13.8-5.53 2.6 0 6.9 0 13.83 5.53v27.8c-6.92-5.56-11.23-5.56-13.84-5.56-4.14 0-9.65 5.56-13.8 5.56-2.56 0-6.9 0-13.8-5.56z" stroke="#000" stroke-width="2" fill="#fcc438"/><use xlink:href="#f" transform="matrix(1,0,0,1,113.74228661140026,786.6000000000003) translate(4 15.6)"/><path d="M151.17 798.27l7.58-.16 6.58-.4 5.8-.6 5.26-.78 4.83-.92 4.56-1.07 4.4-1.23 4.4-1.43 4.58-1.7 5.23-2.2 8-3.8 17.43-8.53 5.23-2.2 4.6-1.7 4.38-1.44 4.4-1.23 4.56-1.07 4.84-.92 5.26-.77 1.77-.18" fill="none"/><path d="M151.17 798.27l3-.06m3.97-.08h.6l5.36-.34m3.96-.36l3.08-.33 2.84-.43m3.93-.64l3.33-.63 2.52-.6m3.86-.98l2.6-.72 3.12-1.02m3.75-1.33l2.1-.8 3.43-1.43m3.64-1.63l5.4-2.56m3.57-1.74l5.37-2.63m3.58-1.75l5.36-2.62m3.67-1.57l1.9-.8 3.66-1.36m3.78-1.27l1.54-.5 4.2-1.17m3.87-.92l.9-.2 4.84-.92.13-.02m3.94-.58l1.2-.17 1.77-.18" stroke="#fcc438" stroke-width="2" fill="none"/><path d="M151.2 799.27l-1.03.04v-2l.96-.03z" fill="#fcc438"/><path d="M279.84 765.1l-14 5.4-.5-9.25z" fill="#fff"/><path d="M283.07 764.93l-18.15 7-.65-12zm-16.3 4.15l9.84-3.8-10.2-2.7z" fill="#fcc438"/><path d="M322.7 782H451v33.33H322.7z" stroke="#000" fill="#fff"/><use xlink:href="#g" transform="matrix(1,0,0,1,327.71186440752876,787) translate(11.524999999999999 15.6)"/><path d="M140 915h106.6v33.33H140z" stroke="#000" stroke-width="2" fill="#fff"/><use xlink:href="#h" transform="matrix(1,0,0,1,144.99999999999997,920) translate(25.549999999999997 15.6)"/><path d="M194.3 862.5v33.26h-2V864.5h-6.95v-2zm-56.9 0v2h-8.94v-33.26h2v31.26zM193.3 910.76l-4.64-14.26h9.27z"/><path d="M193.3 914l-6.02-18.5h12.03zm-3.26-16.5l3.26 10.03 3.25-10.03zM134.1 830.5h-9.28l4.64-14.26z"/><path d="M135.47 831.5h-12.03l6.02-18.5zm-9.27-2h6.5l-3.24-10.02z"/><use xlink:href="#i" transform="matrix(1,0,0,1,137.40070621433264,852.7018045227662) translate(0 14.4)"/><path d="M386.86 815.83v115.84H265.83" stroke="#ff8f80" stroke-width="2" fill="none"/><path d="M387.86 815.83h-2v-.5h2zM265.1 936.3l-14.27-4.63 14.26-4.64z" fill="#ff8f80"/><path d="M266.1 937.68l-18.5-6 18.5-6.03zm-12.04-6l10.03 3.25v-6.52z" fill="#ff8f80"/><path d="M322.2 798.67l-6.23.15-8 .57-13.48 1.6-29 3.95-6.33.46-4.65.12-3.72-.08-3.13-.22-2.7-.32-2.42-.4-2.16-.45-1.98-.52-1.8-.56-1.7-.62-1.6-.66-1.5-.72-1.42-.76-1.36-.8-1.32-.87-1.27-.93-1.24-1-.6-.53" stroke="#ff8f80" fill="none"/><path d="M322.7 799.14l-.46.03-.06-1 .53-.03z" fill="#ff8f80"/><path d="M215.74 784.1l12.2 8.73-7.45 5.5z" stroke="#ff8f80" fill="#ff8f80"/><defs><path d="M127-220V0H93v-220H8v-28h204v28h-85" id="j"/><path d="M179-190L93 31C79 59 56 82 12 73V49c39 6 53-20 64-50L1-190h34L92-34l54-156h33" id="k"/><path d="M115-194c55 1 70 41 70 98S169 2 115 4C84 4 66-9 55-30l1 105H24l-1-265h31l2 30c10-21 28-34 59-34zm-8 174c40 0 45-34 45-75s-6-73-45-74c-42 0-51 32-51 76 0 43 10 73 51 73" id="l"/><path d="M24-231v-30h32v30H24zM24 0v-190h32V0H24" id="m"/><path d="M96-169c-40 0-48 33-48 73s9 75 48 75c24 0 41-14 43-38l32 2c-6 37-31 61-74 61-59 0-76-41-82-99-10-93 101-131 147-64 4 7 5 14 7 22l-32 3c-4-21-16-35-41-35" id="n"/><path d="M141-36C126-15 110 5 73 4 37 3 15-17 15-53c-1-64 63-63 125-63 3-35-9-54-41-54-24 1-41 7-42 31l-33-3c5-37 33-52 76-52 45 0 72 20 72 64v82c-1 20 7 32 28 27v20c-31 9-61-2-59-35zM48-53c0 20 12 33 32 33 41-3 63-29 60-74-43 2-92-5-92 41" id="o"/><path d="M24 0v-261h32V0H24" id="p"/><g id="a"><use transform="matrix(0.05,0,0,0.05,0,0)" xlink:href="#j"/><use transform="matrix(0.05,0,0,0.05,9.950000000000001,0)" xlink:href="#k"/><use transform="matrix(0.05,0,0,0.05,18.950000000000003,0)" xlink:href="#l"/><use transform="matrix(0.05,0,0,0.05,28.950000000000003,0)" xlink:href="#m"/><use transform="matrix(0.05,0,0,0.05,32.900000000000006,0)" xlink:href="#n"/><use transform="matrix(0.05,0,0,0.05,41.900000000000006,0)" xlink:href="#o"/><use transform="matrix(0.05,0,0,0.05,51.900000000000006,0)" xlink:href="#p"/></g><path d="M135-143c-3-34-86-38-87 0 15 53 115 12 119 90S17 21 10-45l28-5c4 36 97 45 98 0-10-56-113-15-118-90-4-57 82-63 122-42 12 7 21 19 24 35" id="q"/><path d="M100-194c63 0 86 42 84 106H49c0 40 14 67 53 68 26 1 43-12 49-29l28 8c-11 28-37 45-77 45C44 4 14-33 15-96c1-61 26-98 85-98zm52 81c6-60-76-77-97-28-3 7-6 17-6 28h103" id="r"/><path d="M114-163C36-179 61-72 57 0H25l-1-190h30c1 12-1 29 2 39 6-27 23-49 58-41v29" id="s"/><path d="M108 0H70L1-190h34L89-25l56-165h34" id="t"/><g id="b"><use transform="matrix(0.05,0,0,0.05,0,0)" xlink:href="#q"/><use transform="matrix(0.05,0,0,0.05,9,0)" xlink:href="#r"/><use transform="matrix(0.05,0,0,0.05,19,0)" xlink:href="#s"/><use transform="matrix(0.05,0,0,0.05,24.95,0)" xlink:href="#t"/><use transform="matrix(0.05,0,0,0.05,33.95,0)" xlink:href="#r"/><use transform="matrix(0.05,0,0,0.05,43.95,0)" xlink:href="#s"/></g><path d="M33-154v-36h34v36H33zM33 0v-36h34V0H33" id="u"/><g id="c"><use transform="matrix(0.05,0,0,0.05,0,0)" xlink:href="#m"/><use transform="matrix(0.05,0,0,0.05,3.95,0)" xlink:href="#q"/><use transform="matrix(0.05,0,0,0.05,12.949999999999998,0)" xlink:href="#u"/></g><path d="M30 0v-248h187v28H63v79h144v27H63v87h162V0H30" id="v"/><path d="M141 0L90-78 38 0H4l68-98-65-92h35l48 74 47-74h35l-64 92 68 98h-35" id="w"/><path d="M160-131c35 5 61 23 61 61C221 17 115-2 30 0v-248c76 3 177-17 177 60 0 33-19 50-47 57zm-97-11c50-1 110 9 110-42 0-47-63-36-110-37v79zm0 115c55-2 124 14 124-45 0-56-70-42-124-44v89" id="x"/><path d="M143 4C61 4 22-44 18-125c-5-107 100-154 193-111 17 8 29 25 37 43l-32 9c-13-25-37-40-76-40-61 0-88 39-88 99 0 61 29 100 91 101 35 0 62-11 79-27v-45h-74v-28h105v86C228-13 192 4 143 4" id="y"/><path d="M30-248c87 1 191-15 191 75 0 78-77 80-158 76V0H30v-248zm33 125c57 0 124 11 124-50 0-59-68-47-124-48v98" id="z"/><g id="d"><use transform="matrix(0.05,0,0,0.05,0,0)" xlink:href="#v"/><use transform="matrix(0.05,0,0,0.05,12,0)" xlink:href="#w"/><use transform="matrix(0.05,0,0,0.05,21,0)" xlink:href="#o"/><use transform="matrix(0.05,0,0,0.05,31,0)" xlink:href="#x"/><use transform="matrix(0.05,0,0,0.05,43,0)" xlink:href="#y"/><use transform="matrix(0.05,0,0,0.05,57,0)" xlink:href="#z"/></g><path d="M143 0L79-87 56-68V0H24v-261h32v163l83-92h37l-77 82L181 0h-38" id="A"/><g id="e"><use transform="matrix(0.05,0,0,0.05,0,0)" xlink:href="#q"/><use transform="matrix(0.05,0,0,0.05,9,0)" xlink:href="#l"/><use transform="matrix(0.05,0,0,0.05,19,0)" xlink:href="#r"/><use transform="matrix(0.05,0,0,0.05,29,0)" xlink:href="#o"/><use transform="matrix(0.05,0,0,0.05,39,0)" xlink:href="#A"/><use transform="matrix(0.05,0,0,0.05,48,0)" xlink:href="#r"/><use transform="matrix(0.05,0,0,0.05,58,0)" xlink:href="#s"/></g><path d="M33 0v-248h34V0H33" id="B"/><g id="f"><use transform="matrix(0.05,0,0,0.05,0,0)" xlink:href="#t"/><use transform="matrix(0.05,0,0,0.05,9,0)" xlink:href="#B"/><use transform="matrix(0.05,0,0,0.05,14,0)" xlink:href="#l"/></g><path d="M106-169C34-169 62-67 57 0H25v-261h32l-1 103c12-21 28-36 61-36 89 0 53 116 60 194h-32v-121c2-32-8-49-39-48" id="C"/><path d="M59-47c-2 24 18 29 38 22v24C64 9 27 4 27-40v-127H5v-23h24l9-43h21v43h35v23H59v120" id="D"/><g id="g"><use transform="matrix(0.05,0,0,0.05,0,0)" xlink:href="#C"/><use transform="matrix(0.05,0,0,0.05,10,0)" xlink:href="#r"/><use transform="matrix(0.05,0,0,0.05,20,0)" xlink:href="#o"/><use transform="matrix(0.05,0,0,0.05,30,0)" xlink:href="#p"/><use transform="matrix(0.05,0,0,0.05,33.95,0)" xlink:href="#D"/><use transform="matrix(0.05,0,0,0.05,38.95,0)" xlink:href="#C"/><use transform="matrix(0.05,0,0,0.05,48.95,0)" xlink:href="#n"/><use transform="matrix(0.05,0,0,0.05,57.95,0)" xlink:href="#C"/><use transform="matrix(0.05,0,0,0.05,67.95,0)" xlink:href="#r"/><use transform="matrix(0.05,0,0,0.05,77.95,0)" xlink:href="#n"/><use transform="matrix(0.05,0,0,0.05,86.95,0)" xlink:href="#A"/></g><path d="M190 0L58-211 59 0H30v-248h39L202-35l-2-213h31V0h-41" id="E"/><path d="M177-190C167-65 218 103 67 71c-23-6-38-20-44-43l32-5c15 47 100 32 89-28v-30C133-14 115 1 83 1 29 1 15-40 15-95c0-56 16-97 71-98 29-1 48 16 59 35 1-10 0-23 2-32h30zM94-22c36 0 50-32 50-73 0-42-14-75-50-75-39 0-46 34-46 75s6 73 46 73" id="F"/><path d="M117-194c89-4 53 116 60 194h-32v-121c0-31-8-49-39-48C34-167 62-67 57 0H25l-1-190h30c1 10-1 24 2 32 11-22 29-35 61-36" id="G"/><g id="h"><use transform="matrix(0.05,0,0,0.05,0,0)" xlink:href="#E"/><use transform="matrix(0.05,0,0,0.05,12.950000000000001,0)" xlink:href="#F"/><use transform="matrix(0.05,0,0,0.05,22.950000000000003,0)" xlink:href="#m"/><use transform="matrix(0.05,0,0,0.05,26.900000000000002,0)" xlink:href="#G"/><use transform="matrix(0.05,0,0,0.05,36.900000000000006,0)" xlink:href="#w"/></g><path d="M30 0v-248h33v221h125V0H30" id="H"/><g id="i"><use transform="matrix(0.05,0,0,0.05,0,0)" xlink:href="#H"/><use transform="matrix(0.05,0,0,0.05,10,0)" xlink:href="#m"/><use transform="matrix(0.05,0,0,0.05,13.949999999999998,0)" xlink:href="#q"/><use transform="matrix(0.05,0,0,0.05,22.95,0)" xlink:href="#D"/><use transform="matrix(0.05,0,0,0.05,27.950000000000003,0)" xlink:href="#r"/><use transform="matrix(0.05,0,0,0.05,37.95,0)" xlink:href="#G"/></g></defs></g></svg>