<svg xmlns="http://www.w3.org/2000/svg" xmlns:xlink="http://www.w3.org/1999/xlink" xmlns:lucid="lucid" width="1048" height="648"><g transform="translate(-115 0)" lucid:page-tab-id="0_0"><path d="M1057.27 260c18.07 0 32.73 10.37 32.73 23.17 0 12.8-14.66 23.16-32.73 23.16h-98.2c-18.08 0-32.74-10.37-32.74-23.16 0-12.8 14.66-23.17 32.74-23.17z" stroke="#000" stroke-width="2" fill="#b2d6ef"/><use xlink:href="#a" transform="matrix(1,0,0,1,931.3333333333334,265) translate(32 22.1)"/><use xlink:href="#b" transform="matrix(1,0,0,1,931.3333333333334,265) translate(74.55000000000001 22.1)"/><path d="M567.27 260c18.07 0 32.73 10.37 32.73 23.17 0 12.8-14.66 23.16-32.73 23.16h-98.2c-18.08 0-32.74-10.37-32.74-23.16 0-12.8 14.66-23.17 32.74-23.17z" stroke="#000" stroke-width="2" fill="#b2d6ef"/><use xlink:href="#a" transform="matrix(1,0,0,1,441.33333333333337,265) translate(32 22.1)"/><use xlink:href="#c" transform="matrix(1,0,0,1,441.33333333333337,265) translate(74.55000000000001 22.1)"/><path d="M827.6 159.62c26.1 0 47.23 10 47.23 22.3s-21.14 22.3-47.23 22.3H685.9c-26.1 0-47.23-10-47.23-22.3s21.14-22.3 47.23-22.3z" stroke="#000" stroke-width="2" fill="#b2d6ef"/><use xlink:href="#d" transform="matrix(1,0,0,1,643.6666666666665,164.62499999999028) translate(24 21.1)"/><use xlink:href="#e" transform="matrix(1,0,0,1,643.6666666666665,164.62499999999028) translate(67.9 21.1)"/><path d="M854.83 181.92c0 8.05-13.43 14.58-30 14.58s-30-6.53-30-14.58c0-8.06 13.43-14.6 30-14.6s30 6.54 30 14.6zm-51.2-10.32l42.42 20.63m-42.43 0l42.43-20.63" stroke="#000" stroke-width="2" fill="#fff"/><path d="M518.17 259l238.58-53.8" stroke="#5abaa7" stroke-width="2" fill="none"/><path d="M518.4 259.98l-.12.02h-2.96l-.3-1.32 2.93-.66zM759.9 205.52l-2.93.66-.44-1.95.1-.02h2.97z" fill="#5abaa7"/><path d="M263.33 83.33c-26.5 0-48-7.16-48-16 0-7.07 13-13.03 33.17-15.2-1.17-20.8 78.83-24.8 110.83-16.8 16-12 96-8 96 4 48-4 96 12 64 32 32 16 0 36-64 28-16 10.4-80 10.4-96 0-32 8-96 4-96-16z" stroke="#000" stroke-width="2" fill="#fff"/><use xlink:href="#f" transform="matrix(1,0,0,1,220.33333333333337,32.333333333333314) translate(96.6 38.6)"/><use xlink:href="#g" transform="matrix(1,0,0,1,220.33333333333337,32.333333333333314) translate(150.5 38.6)"/><path d="M530.58 57.2l123.97-2.14 12.5.63 8.7.8 6.7.92 5.46.98 4.6 1.02 3.97 1.06 3.5 1.1 3.16 1.13L706 63.9l2.64 1.2 2.45 1.26 2.3 1.3 2.17 1.35 2.08 1.4 2 1.48 1.92 1.56 1.87 1.65 1.83 1.74 1.8 1.88 1.8 2.03 1.77 2.2 1.78 2.4 1.8 2.63 1.8 2.94 1.88 3.3 1.9 3.78 2 4.35 2.1 5.14 2.23 6.18 2.4 7.68 2.65 9.94 2.1 9.42" stroke="#000" stroke-width="2" fill="none"/><path d="M530.6 58.2l-.92.02-.02-.28-.07-.57-.13-.57-.17-.58 1.26-.02zM756.13 155.45l-7.26-13.12 9.1-1.77z"/><path d="M756.75 158.62l-9.43-17 11.8-2.3zm-6.34-15.57l5.12 9.22 1.3-10.47z"/><path d="M166 180h160v40H166z" stroke="#000" stroke-width="2" fill="#fff"/><use xlink:href="#h" transform="matrix(1,0,0,1,171.00000000162984,185) translate(8 14.4)"/><path d="M327 200l4.48-.12 4.3-.35 4.16-.57 4.02-.78 3.9-.97 3.8-1.16 3.7-1.37 3.6-1.56 3.54-1.75 3.46-1.97 3.38-2.17 3.3-2.38 3.25-2.63 3.15-2.86 3.08-3.1 3-3.38 2.9-3.63 2.77-3.9 2.66-4.2 2.5-4.5 2.34-4.77 2.14-5.07 1.93-5.35 1.68-5.6 1.4-5.84.7-3.75" stroke="#000" stroke-width="2" fill="none"/><path d="M327.1 201l-1.1.1v-2l.9-.1zM410.84 126l-9.22-.92 6.03-13.73z"/><path d="M412.1 127.14l-11.95-1.2 7.82-17.8zm-9-2.92l6.47.65-2.24-10.3z"/><path d="M1008.17 259l-251.42-53.8" stroke="#5abaa7" stroke-width="2" fill="none"/><path d="M1011.3 258.65l-.28 1.35h-2.96l-.1-.02.42-1.96z" fill="#5abaa7"/><path d="M160 423.67h360V500H160z" stroke="#000" stroke-width="2" fill="#fff"/><path d="M160 417.07h162.7v53.2H160z" stroke="#000" stroke-opacity="0" stroke-width="2" fill="#fff" fill-opacity="0"/><use xlink:href="#i" transform="matrix(1,0,0,1,165,422.0666666666667) translate(33.224999999999994 25.6)"/><use xlink:href="#j" transform="matrix(1,0,0,1,165,422.0666666666667) translate(91.125 25.6)"/><path d="M344.07 430.33H511v33.34H344.07z" stroke="#000" stroke-width="2" fill="#fff"/><use xlink:href="#k" transform="matrix(1,0,0,1,349.06779660935956,435.33333333333337) translate(7.199999999999989 15.6)"/><use xlink:href="#l" transform="matrix(1,0,0,1,349.06779660935956,435.33333333333337) translate(85.85 15.6)"/><path d="M168.74 463.67c6.88 5.53 11.23 5.53 13.8 5.53 4.14 0 9.65-5.53 13.8-5.53 2.6 0 6.9 0 13.83 5.53V497c-6.92-5.57-11.23-5.57-13.84-5.57-4.14 0-9.65 5.57-13.8 5.57-2.56 0-6.9 0-13.8-5.57z" stroke="#000" stroke-width="2" fill="#fcc438"/><use xlink:href="#m" transform="matrix(1,0,0,1,173.7422866114003,468.66666666666674) translate(4 15.6)"/><path d="M211.17 480.33l7.58-.15 6.58-.4 5.8-.62 5.26-.78 4.83-.92 4.56-1.07 4.4-1.24 4.4-1.42 4.58-1.7 5.23-2.22 8-3.8 17.43-8.5 5.23-2.2 4.6-1.72 4.38-1.43 4.4-1.23 4.56-1.07 4.84-.92 5.26-.78 1.77-.18" fill="none"/><path d="M211.17 480.33l3-.06m3.97-.08l.6-.02 5.36-.34m3.96-.36l3.08-.32 2.84-.42m3.93-.64l3.33-.64 2.52-.6m3.86-.97l2.6-.74 3.12-1m3.75-1.35l2.1-.77 3.43-1.44m3.64-1.64l5.4-2.56m3.57-1.74l5.37-2.62m3.58-1.75l5.36-2.64m3.67-1.56l1.9-.8 3.66-1.36m3.78-1.27l1.54-.5 4.2-1.17m3.87-.92l.9-.2 4.84-.93.13-.02m3.94-.58l1.2-.18 1.77-.18" stroke="#fcc438" stroke-width="2" fill="none"/><path d="M211.2 481.33l-1.03.05v-2l.96-.05z" fill="#fcc438"/><path d="M339.84 447.18l-14 5.4-.5-9.26z" fill="#fff"/><path d="M343.07 447l-18.15 7-.65-12zm-16.3 4.15l9.84-3.8-10.2-2.7z" fill="#fcc438"/><path d="M512 447l2.78-.06 2.62-.16 2.5-.26 2.36-.35 2.27-.44 2.2-.5 2.1-.6 2.05-.67 2-.74 1.96-.82 1.93-.9 1.9-1 1.88-1.1 1.87-1.18 1.87-1.3 1.87-1.42 1.9-1.57 1.9-1.73 1.96-1.9 2-2.13 2.04-2.38 2.13-2.7 2.22-3.06 2.35-3.53 2.5-4.12 2.72-4.96 3.02-6.1 3.53-7.97 4.56-11.57 24.55-69.7 3.77-8.5 3.28-6.6 2.96-5.4 2.75-4.54 2.6-3.9 2.5-3.42 2.37-3 2.32-2.7 2.25-2.4 2.22-2.2 2.2-1.96 2.17-1.8 2.13-1.62 38.55-27.26 14.16-9.03 11.57-6.7 11.88-6.22 14.8-6.96 25-10.47 23.75-9" fill="none"/><path d="M512 447l2.78-.06h.25m4.02-.34l.84-.08 2.36-.35 2.27-.44.5-.1m3.9-1.03l1.95-.64 2-.74 1.7-.72m3.63-1.77l.47-.23 1.88-1.1 1.87-1.18.94-.65m3.23-2.42l1.46-1.22 1.92-1.73 1.1-1.1m2.8-2.9l.04-.03 2.05-2.38 1.78-2.26m2.4-3.25l.17-.26 2.35-3.53.77-1.27m2.07-3.47l2.4-4.34.48-1m1.8-3.6l.74-1.5 1.77-4m1.63-3.7l.12-.27 2.1-5.34m1.5-3.75l.96-2.47 1.14-3.2m1.34-3.8l2-5.7m1.35-3.82l2-5.7m1.35-3.8l2-5.72m1.35-3.8l2-5.7m1.35-3.82l2-5.7m1.35-3.8l2-5.72m1.35-3.8l1.97-5.6.05-.1m1.63-3.7l2.1-4.7.4-.8m1.78-3.62l1.1-2.2 1.74-3.16m2-3.5l1.97-3.28 1.24-1.85m2.3-3.33l1.55-2.15 2.1-2.66m2.62-3.07l2.23-2.4 2-1.94m3-2.68l1.6-1.32 2.12-1.62 1.07-.76m3.3-2.33l4.94-3.5m3.3-2.32l4.93-3.5m3.3-2.32l4.94-3.5m3.3-2.32l4.94-3.5m3.3-2.32l1.24-.88 3.8-2.43m3.42-2.17l5.1-3.26m3.44-2.1l5.24-3.03m3.5-2.03l1.23-.72 4.1-2.14m3.56-1.86l4.23-2.2 1.17-.56m3.65-1.72l5.47-2.57m3.66-1.73l.85-.4 4.7-1.97m3.73-1.56l5.58-2.34m3.73-1.55l5.58-2.34m3.75-1.48l5.65-2.15m3.78-1.43l5.65-2.15m3.78-1.44l2.82-1.07" stroke="#fcc438" stroke-width="2" fill="none"/><path d="M512.13 448l-1.13.13v-2l.88-.12z" fill="#fcc438"/><path d="M779.12 192.46l-3.3-8.67 15-.73z" fill="#fff"/><path d="M778.67 194.1l-4.27-11.24 19.43-.94zm-1.42-9.37l2.3 6.1 8.23-6.62z" fill="#fcc438"/><path d="M160 546.6h360v76.33H160z" stroke="#000" stroke-width="2" fill="#fff"/><path d="M160 540h162.7v53.2H160z" stroke="#000" stroke-opacity="0" stroke-width="2" fill="#fff" fill-opacity="0"/><use xlink:href="#i" transform="matrix(1,0,0,1,165,545) translate(32.55 25.6)"/><use xlink:href="#n" transform="matrix(1,0,0,1,165,545) translate(90.45 25.6)"/><path d="M344.07 553.27H511v33.33H344.07z" stroke="#000" stroke-width="2" fill="#fff"/><use xlink:href="#k" transform="matrix(1,0,0,1,349.06779660935956,558.2666666666667) translate(7.199999999999989 15.6)"/><use xlink:href="#l" transform="matrix(1,0,0,1,349.06779660935956,558.2666666666667) translate(85.85 15.6)"/><path d="M168.74 586.6c6.88 5.53 11.23 5.53 13.8 5.53 4.14 0 9.65-5.53 13.8-5.53 2.6 0 6.9 0 13.83 5.53v27.8c-6.92-5.56-11.23-5.56-13.84-5.56-4.14 0-9.65 5.56-13.8 5.56-2.56 0-6.9 0-13.8-5.56z" stroke="#000" stroke-width="2" fill="#fcc438"/><use xlink:href="#o" transform="matrix(1,0,0,1,173.74228661140032,591.6000000000001) translate(4 15.6)"/><path d="M211.17 603.27l7.58-.16 6.58-.4 5.8-.6 5.26-.78 4.83-.92 4.56-1.07 4.4-1.23 4.4-1.43 4.58-1.7 5.23-2.2 8-3.8 17.43-8.53 5.23-2.2 4.6-1.7 4.38-1.44 4.4-1.23 4.56-1.07 4.84-.92 5.26-.77 1.77-.18" fill="none"/><path d="M211.17 603.27l3-.06m3.97-.08h.6l5.36-.34m3.96-.36l3.08-.33 2.84-.43m3.93-.64l3.33-.63 2.52-.6m3.86-.98l2.6-.72 3.12-1.02m3.75-1.33l2.1-.8 3.43-1.43m3.64-1.63l5.4-2.56m3.57-1.74l5.37-2.63m3.58-1.75l5.36-2.62m3.67-1.57l1.9-.8 3.66-1.36m3.78-1.27l1.54-.5 4.2-1.17m3.87-.92l.9-.2 4.84-.92.13-.02m3.94-.58l1.2-.17 1.77-.18" stroke="#fcc438" stroke-width="2" fill="none"/><path d="M211.2 604.27l-1.03.04v-2l.96-.03z" fill="#fcc438"/><path d="M339.84 570.1l-14 5.4-.5-9.25z" fill="#fff"/><path d="M343.07 569.93l-18.15 7-.65-12zm-16.3 4.15l9.84-3.8-10.2-2.7z" fill="#fcc438"/><path d="M512 569.93l2.27-.04 2.13-.15 2-.2 1.9-.3 1.82-.33 1.73-.4 1.67-.48 1.6-.52 1.56-.58 1.52-.64 1.48-.7 1.46-.75 1.43-.83 1.4-.9 1.4-.97 1.4-1.06 1.4-1.16 1.4-1.25 1.4-1.4 1.4-1.5 1.45-1.66 1.46-1.85 1.5-2.07 1.53-2.32 1.6-2.6 1.65-3 1.72-3.48 1.8-4.08 1.94-4.88 2.1-6 2.28-7.6L566 506l3.3-15.62 19.6-113.1 4.06-15.87 3.83-12.7 3.02-8.84 8.55-21.77 6.27-13.6 5.22-9.8 4.67-7.67 4.4-6.4 4.35-5.57 4.44-5.08 4.74-4.82 5.27-4.8 6.27-5.07 4.35-3.23 23.86-16.37 15.5-9.7 12.78-7.23 12.8-6.55 17.6-8.07L777 188.98" fill="none"/><path d="M512 569.93l2.27-.04.75-.06m4-.4l1.28-.18 1.82-.34 1.73-.4 1.08-.3m3.8-1.3l1.47-.62 1.48-.7 1.46-.75 1.02-.6m3.36-2.2l1.25-.96 1.4-1.16 1.4-1.25.55-.56m2.76-2.92l.94-1.08 1.46-1.85 1.32-1.84m2.2-3.37l1.1-1.8 1.65-3 .22-.46m1.77-3.62l1.54-3.48.82-2.08m1.44-3.76l1.75-5.03.2-.68m1.16-3.87l.92-3.07.7-2.74m1-3.9L566 506l.48-2.26m.83-3.94l1.25-5.9m.82-3.95l1.03-5.95m.7-3.97l1.02-5.95m.7-3.96l1.02-5.95m.68-3.97l1.04-5.95m.68-3.97l1.04-5.95m.68-3.96l1.03-5.96m.68-3.95l1.03-5.95m.7-3.97l1.03-5.95m.7-3.97l1.02-5.94m.7-3.96l1.02-5.96m.7-3.96l1.02-5.95m.68-3.97l.62-3.57.6-2.35m1-3.9l1.5-5.85m1-3.9l1.73-5.78m1.16-3.86l.9-2.97.94-2.8m1.3-3.8l.78-2.24 1.34-3.4m1.47-3.76l2.2-5.62m1.48-3.75l2.07-5.24.17-.38m1.7-3.65l2.52-5.5m1.68-3.64l.2-.44 2.62-4.92m1.9-3.55l.7-1.33 2.36-3.87m2.1-3.44l.2-.37 3.2-4.62m2.38-3.24l3.18-4.1.56-.64m2.65-3.03l1.22-1.42 2.92-2.97m2.88-2.8l4.2-3.84.28-.22m3.13-2.53l2.87-2.3 1.9-1.4m3.24-2.37l4.98-3.42m3.32-2.27l4.98-3.42m3.32-2.26l4.98-3.42m3.37-2.2l5.1-3.2m3.43-2.13l5.08-3.2h.05m3.5-2l5.26-2.98m3.5-1.98l.48-.27 4.9-2.5m3.58-1.84l4.3-2.2 1.1-.5m3.65-1.7l5.5-2.5m3.66-1.68l3.7-1.7 1.82-.76m3.7-1.57l5.58-2.33m3.7-1.56l5.58-2.34m3.7-1.56l5.58-2.34m3.7-1.56l2.8-1.16" stroke="#fcc438" stroke-width="2" fill="none"/><path d="M512.16 570.92l-1.16.18v-2.02l.85-.13z" fill="#fcc438"/><path d="M779.5 192.97l-3.6-8.55 14.95-1.25z" fill="#fff"/><path d="M779.1 194.62l-4.65-11.08 19.38-1.62zm-1.74-9.32l2.52 6 8-6.88z" fill="#fcc438"/><path d="M680 423.6h360v76.33H680z" stroke="#000" stroke-width="2" fill="#fff"/><path d="M680 417h162.7v53.2H680z" stroke="#000" stroke-opacity="0" stroke-width="2" fill="#fff" fill-opacity="0"/><use xlink:href="#i" transform="matrix(1,0,0,1,685,422) translate(32.55 25.6)"/><use xlink:href="#p" transform="matrix(1,0,0,1,685,422) translate(90.45 25.6)"/><path d="M864.07 430.27H1031v33.33H864.07z" stroke="#000" stroke-width="2" fill="#fff"/><use xlink:href="#k" transform="matrix(1,0,0,1,869.0677966093596,435.26666666666665) translate(7.199999999999989 15.6)"/><use xlink:href="#l" transform="matrix(1,0,0,1,869.0677966093596,435.26666666666665) translate(85.85 15.6)"/><path d="M688.74 463.6c6.88 5.53 11.23 5.53 13.8 5.53 4.14 0 9.65-5.53 13.8-5.53 2.6 0 6.9 0 13.83 5.53v27.8c-6.92-5.56-11.23-5.56-13.84-5.56-4.14 0-9.65 5.56-13.8 5.56-2.56 0-6.9 0-13.8-5.56z" stroke="#000" stroke-width="2" fill="#fcc438"/><use xlink:href="#o" transform="matrix(1,0,0,1,693.7422866114002,468.6) translate(4 15.6)"/><path d="M731.17 480.27l7.58-.16 6.58-.4 5.8-.6 5.26-.78 4.83-.92 4.56-1.07 4.4-1.23 4.4-1.43 4.58-1.7 5.23-2.2 8-3.8 17.43-8.53 5.23-2.2 4.6-1.7 4.38-1.44 4.4-1.23 4.56-1.07 4.84-.92 5.26-.77 1.77-.18" fill="none"/><path d="M731.17 480.27l3-.06m3.97-.08h.6l5.36-.34m3.96-.36l3.08-.33 2.84-.43m3.93-.64l3.33-.63 2.52-.6m3.86-.98l2.6-.72 3.12-1.02m3.75-1.33l2.1-.8 3.43-1.43m3.64-1.63l5.4-2.56m3.57-1.74l5.37-2.63m3.58-1.75l5.36-2.62m3.67-1.57l1.9-.8 3.66-1.36m3.78-1.27l1.54-.5 4.2-1.17m3.87-.92l.9-.2 4.84-.92.13-.02m3.94-.58l1.2-.17 1.77-.18" stroke="#fcc438" stroke-width="2" fill="none"/><path d="M731.2 481.27l-1.03.04v-2l.96-.03z" fill="#fcc438"/><path d="M859.84 447.1l-14 5.4-.5-9.25z" fill="#fff"/><path d="M863.07 446.93l-18.15 7-.65-12zm-16.3 4.15l9.84-3.8-10.2-2.7z" fill="#fcc438"/><path d="M1032 446.93l2.08-.04 2.1-.14 2.1-.22 2.15-.32 2.17-.42 2.22-.52 2.26-.63 2.3-.75 2.37-.88 2.42-1.02 2.5-1.17 2.55-1.33 2.63-1.52 2.7-1.72 2.8-1.94 2.86-2.18 2.95-2.44 3.03-2.72 3.1-3.03 3.15-3.36 3.2-3.72 3.22-4.07 3.22-4.42 3.18-4.8 3.12-5.15 3-5.47 2.86-5.76 2.67-6 2.44-6.16 2.2-6.27 1.9-6.32 1.6-6.3 1.33-6.2 1.03-6.1.75-5.9.48-5.74.23-5.5v-5.28l-.2-5.06-.4-4.82-.6-4.6-.73-4.4-.9-4.16-1-3.98-1.16-3.8-1.26-3.62-1.36-3.46-1.47-3.3-1.57-3.17-1.67-3.04-1.76-2.9-1.86-2.8-1.95-2.7-2.05-2.58-.26-.3-5.17-5.94-5.4-5.7-5.65-5.47-5.9-5.25-6.2-5.08-6.53-4.9-6.88-4.72-7.27-4.56-7.72-4.4-8.22-4.26-8.78-4.07-9.43-3.9-10.2-3.74-11.04-3.52-12.07-3.3-13.3-3.03-14.78-2.74-16.7-2.37-19.4-1.93-24-1.36-19.95-.3" fill="none"/><path d="M1032 446.93l2.08-.04.9-.07m3.95-.4l1.5-.2 2.17-.43 2.17-.5m3.8-1.13l.82-.27 2.35-.88 2.38-1m3.57-1.73l1.52-.8 2.63-1.52 1.02-.65m3.3-2.2l1.17-.8 2.87-2.2.73-.58m3.02-2.57l2.23-2 2.1-2.08m2.77-2.85l1.38-1.46 2.58-3m2.5-3.1l1.35-1.7 2.22-3.05m2.26-3.27l1.92-2.9 1.3-2.12m2.03-3.4l2.8-5.1.06-.13m1.76-3.55l1.03-2.08 1.48-3.32m1.6-3.65l2.04-5.2.13-.34m1.3-3.76l.76-2.17 1.05-3.5m1.1-3.8l1.37-5.3.1-.5m.83-3.87l.4-1.86.67-4m.58-3.93l.52-4.06.15-1.84m.33-3.96l.23-5.44v-.5m0-3.98v-.8l-.2-5.06-.02-.1m-.33-3.95l-.05-.76-.58-4.6-.1-.54m-.66-3.9l-.86-4.12-.44-1.7m-1.05-3.83l-.68-2.25-1.18-3.4m-1.47-3.7l-1.46-3.3-1.05-2.1m-1.87-3.5l-.32-.6-1.76-2.9-1.04-1.57m-2.3-3.24l-.48-.7-2.05-2.58-.26-.3-.93-1.07m-2.6-3l-1.63-1.87-2.4-2.52m-2.72-2.88l-.28-.3-4-3.86m-2.88-2.7l-4.46-3.97m-3.06-2.52l-3.37-2.76-1.27-.96m-3.18-2.38l-2.06-1.54-2.8-1.92m-3.27-2.25l-.8-.55-4.22-2.64m-3.36-2.1l-5.17-2.94m-3.48-1.9l-5.3-2.74m-3.57-1.75l-5.4-2.5m-3.64-1.6l-5.5-2.27m-3.7-1.44l-5.6-2.04m-3.75-1.32l-5.67-1.8m-3.8-1.22l-.52-.17-5.2-1.4m-3.84-1.06l-3.03-.83-2.75-.62m-3.87-.88l-5.8-1.33m-3.9-.76l-5.86-1.08m-3.9-.72l-2-.37-3.88-.55m-3.94-.56l-5.9-.84m-3.93-.5l-5.92-.6m-3.96-.4l-5.93-.6m-3.96-.32l-5.93-.34m-3.97-.23l-5.94-.34m-3.97-.23l-2.88-.16-3.08-.05m-3.97-.06l-5.95-.08m-3.97-.06l-2.98-.04" stroke="#fcc438" stroke-width="2" fill="none"/><path d="M1032.15 447.92l-1.15.17v-2.03l.86-.13z" fill="#fcc438"/><path d="M873.27 186.8l-14.2-4.84 14.33-4.43z" fill="#fff"/><path d="M874.25 188.2l-18.42-6.28 18.6-5.75zM862.3 182l10 3.4.08-6.5z" fill="#fcc438"/><path d="M521 483.33h35v-176" stroke="#5abaa7" stroke-width="2" fill="none"/><path d="M521 484.33h-1v-2h1zM557 307.33h-2v-1h2z" fill="#5abaa7"/><path d="M521 604.67h35V307.33" stroke="#5abaa7" stroke-width="2" fill="none"/><path d="M521 605.67h-1v-2h1zM557 307.33h-2v-1h2z" fill="#5abaa7"/><path d="M1041 484.67h25.32v-178.2" stroke="#5abaa7" stroke-width="2" fill="none"/><path d="M1041 485.67h-1v-2h1zM1067.32 306.46h-2v-.9l.8-.1 1.2-.32z" fill="#5abaa7"/><defs><path d="M127-220V0H93v-220H8v-28h204v28h-85" id="q"/><path d="M140-251c81 0 123 46 123 126C263-46 219 4 140 4 59 4 17-45 17-125s42-126 123-126zm0 227c63 0 89-41 89-101s-29-99-89-99c-61 0-89 39-89 99S79-25 140-24" id="r"/><path d="M233-177c-1 41-23 64-60 70L243 0h-38l-65-103H63V0H30v-248c88 3 205-21 203 71zM63-129c60-2 137 13 137-47 0-61-80-42-137-45v92" id="s"/><g id="a"><use transform="matrix(0.05,0,0,0.05,0,0)" xlink:href="#q"/><use transform="matrix(0.05,0,0,0.05,10.600000000000001,0)" xlink:href="#r"/><use transform="matrix(0.05,0,0,0.05,24.6,0)" xlink:href="#s"/></g><path d="M158-156l-14 65h45v19h-49L124 0h-19l15-72H56L41 0H22l15-72H2v-19h39l14-65H11v-19h48l15-71h20l-16 71h64l16-71h19l-16 71h37v19h-40zm-83 0L61-91h63l14-65H75" id="t"/><path d="M101-251c82-7 93 87 43 132L82-64C71-53 59-42 53-27h129V0H18c2-99 128-94 128-182 0-28-16-43-45-43s-46 15-49 41l-32-3c6-41 34-60 81-64" id="u"/><g id="b"><use transform="matrix(0.05,0,0,0.05,0,0)" xlink:href="#t"/><use transform="matrix(0.05,0,0,0.05,10,0)" xlink:href="#u"/></g><path d="M27 0v-27h64v-190l-56 39v-29l58-41h29v221h61V0H27" id="v"/><g id="c"><use transform="matrix(0.05,0,0,0.05,0,0)" xlink:href="#t"/><use transform="matrix(0.05,0,0,0.05,10,0)" xlink:href="#v"/></g><path d="M212-179c-10-28-35-45-73-45-59 0-87 40-87 99 0 60 29 101 89 101 43 0 62-24 78-52l27 14C228-24 195 4 139 4 59 4 22-46 18-125c-6-104 99-153 187-111 19 9 31 26 39 46" id="w"/><path d="M100-194c62-1 85 37 85 99 1 63-27 99-86 99S16-35 15-95c0-66 28-99 85-99zM99-20c44 1 53-31 53-75 0-43-8-75-51-75s-53 32-53 75 10 74 51 75" id="x"/><path d="M114-163C36-179 61-72 57 0H25l-1-190h30c1 12-1 29 2 39 6-27 23-49 58-41v29" id="y"/><path d="M100-194c63 0 86 42 84 106H49c0 40 14 67 53 68 26 1 43-12 49-29l28 8c-11 28-37 45-77 45C44 4 14-33 15-96c1-61 26-98 85-98zm52 81c6-60-76-77-97-28-3 7-6 17-6 28h103" id="z"/><g id="d"><use transform="matrix(0.05,0,0,0.05,0,0)" xlink:href="#w"/><use transform="matrix(0.05,0,0,0.05,12.950000000000001,0)" xlink:href="#x"/><use transform="matrix(0.05,0,0,0.05,22.950000000000003,0)" xlink:href="#y"/><use transform="matrix(0.05,0,0,0.05,28.900000000000002,0)" xlink:href="#z"/></g><path d="M84 4C-5 8 30-112 23-190h32v120c0 31 7 50 39 49 72-2 45-101 50-169h31l1 190h-30c-1-10 1-25-2-33-11 22-28 36-60 37" id="A"/><path d="M59-47c-2 24 18 29 38 22v24C64 9 27 4 27-40v-127H5v-23h24l9-43h21v43h35v23H59v120" id="B"/><g id="e"><use transform="matrix(0.05,0,0,0.05,0,0)" xlink:href="#y"/><use transform="matrix(0.05,0,0,0.05,5.95,0)" xlink:href="#x"/><use transform="matrix(0.05,0,0,0.05,15.949999999999998,0)" xlink:href="#A"/><use transform="matrix(0.05,0,0,0.05,25.950000000000003,0)" xlink:href="#B"/><use transform="matrix(0.05,0,0,0.05,30.950000000000003,0)" xlink:href="#z"/><use transform="matrix(0.05,0,0,0.05,40.95,0)" xlink:href="#y"/></g><path d="M30-248c87 1 191-15 191 75 0 78-77 80-158 76V0H30v-248zm33 125c57 0 124 11 124-50 0-59-68-47-124-48v98" id="C"/><path d="M115-194c53 0 69 39 70 98 0 66-23 100-70 100C84 3 66-7 56-30L54 0H23l1-261h32v101c10-23 28-34 59-34zm-8 174c40 0 45-34 45-75 0-40-5-75-45-74-42 0-51 32-51 76 0 43 10 73 51 73" id="D"/><path d="M24 0v-261h32V0H24" id="E"/><path d="M24-231v-30h32v30H24zM24 0v-190h32V0H24" id="F"/><path d="M96-169c-40 0-48 33-48 73s9 75 48 75c24 0 41-14 43-38l32 2c-6 37-31 61-74 61-59 0-76-41-82-99-10-93 101-131 147-64 4 7 5 14 7 22l-32 3c-4-21-16-35-41-35" id="G"/><g id="f"><use transform="matrix(0.05,0,0,0.05,0,0)" xlink:href="#C"/><use transform="matrix(0.05,0,0,0.05,12,0)" xlink:href="#A"/><use transform="matrix(0.05,0,0,0.05,22,0)" xlink:href="#D"/><use transform="matrix(0.05,0,0,0.05,32,0)" xlink:href="#E"/><use transform="matrix(0.05,0,0,0.05,35.95,0)" xlink:href="#F"/><use transform="matrix(0.05,0,0,0.05,39.900000000000006,0)" xlink:href="#G"/></g><path d="M117-194c89-4 53 116 60 194h-32v-121c0-31-8-49-39-48C34-167 62-67 57 0H25l-1-190h30c1 10-1 24 2 32 11-22 29-35 61-36" id="H"/><path d="M206 0h-36l-40-164L89 0H53L-1-190h32L70-26l43-164h34l41 164 42-164h31" id="I"/><path d="M143 0L79-87 56-68V0H24v-261h32v163l83-92h37l-77 82L181 0h-38" id="J"/><g id="g"><use transform="matrix(0.05,0,0,0.05,0,0)" xlink:href="#H"/><use transform="matrix(0.05,0,0,0.05,10,0)" xlink:href="#z"/><use transform="matrix(0.05,0,0,0.05,20,0)" xlink:href="#B"/><use transform="matrix(0.05,0,0,0.05,25,0)" xlink:href="#I"/><use transform="matrix(0.05,0,0,0.05,37.95,0)" xlink:href="#x"/><use transform="matrix(0.05,0,0,0.05,47.95,0)" xlink:href="#y"/><use transform="matrix(0.05,0,0,0.05,53.900000000000006,0)" xlink:href="#J"/></g><g id="h"><use transform="matrix(0.05,0,0,0.05,0,0)" xlink:href="#w"/><use transform="matrix(0.05,0,0,0.05,12.950000000000001,0)" xlink:href="#E"/><use transform="matrix(0.05,0,0,0.05,16.900000000000002,0)" xlink:href="#F"/><use transform="matrix(0.05,0,0,0.05,20.85,0)" xlink:href="#z"/><use transform="matrix(0.05,0,0,0.05,30.85,0)" xlink:href="#H"/><use transform="matrix(0.05,0,0,0.05,40.85,0)" xlink:href="#B"/></g><path d="M185-189c-5-48-123-54-124 2 14 75 158 14 163 119 3 78-121 87-175 55-17-10-28-26-33-46l33-7c5 56 141 63 141-1 0-78-155-14-162-118-5-82 145-84 179-34 5 7 8 16 11 25" id="K"/><path d="M108 0H70L1-190h34L89-25l56-165h34" id="L"/><g id="i"><use transform="matrix(0.05,0,0,0.05,0,0)" xlink:href="#K"/><use transform="matrix(0.05,0,0,0.05,12,0)" xlink:href="#z"/><use transform="matrix(0.05,0,0,0.05,22,0)" xlink:href="#y"/><use transform="matrix(0.05,0,0,0.05,27.950000000000003,0)" xlink:href="#L"/><use transform="matrix(0.05,0,0,0.05,36.95,0)" xlink:href="#z"/><use transform="matrix(0.05,0,0,0.05,46.95,0)" xlink:href="#y"/></g><g id="j"><use transform="matrix(0.05,0,0,0.05,0,0)" xlink:href="#t"/><use transform="matrix(0.05,0,0,0.05,10,0)" xlink:href="#v"/><use transform="matrix(0.05,0,0,0.05,18.65,0)" xlink:href="#v"/></g><path d="M30 0v-248h187v28H63v79h144v27H63v87h162V0H30" id="M"/><path d="M141 0L90-78 38 0H4l68-98-65-92h35l48 74 47-74h35l-64 92 68 98h-35" id="N"/><path d="M141-36C126-15 110 5 73 4 37 3 15-17 15-53c-1-64 63-63 125-63 3-35-9-54-41-54-24 1-41 7-42 31l-33-3c5-37 33-52 76-52 45 0 72 20 72 64v82c-1 20 7 32 28 27v20c-31 9-61-2-59-35zM48-53c0 20 12 33 32 33 41-3 63-29 60-74-43 2-92-5-92 41" id="O"/><path d="M160-131c35 5 61 23 61 61C221 17 115-2 30 0v-248c76 3 177-17 177 60 0 33-19 50-47 57zm-97-11c50-1 110 9 110-42 0-47-63-36-110-37v79zm0 115c55-2 124 14 124-45 0-56-70-42-124-44v89" id="P"/><path d="M143 4C61 4 22-44 18-125c-5-107 100-154 193-111 17 8 29 25 37 43l-32 9c-13-25-37-40-76-40-61 0-88 39-88 99 0 61 29 100 91 101 35 0 62-11 79-27v-45h-74v-28h105v86C228-13 192 4 143 4" id="Q"/><g id="k"><use transform="matrix(0.05,0,0,0.05,0,0)" xlink:href="#M"/><use transform="matrix(0.05,0,0,0.05,12,0)" xlink:href="#N"/><use transform="matrix(0.05,0,0,0.05,21,0)" xlink:href="#O"/><use transform="matrix(0.05,0,0,0.05,31,0)" xlink:href="#P"/><use transform="matrix(0.05,0,0,0.05,43,0)" xlink:href="#Q"/><use transform="matrix(0.05,0,0,0.05,57,0)" xlink:href="#C"/></g><path d="M135-143c-3-34-86-38-87 0 15 53 115 12 119 90S17 21 10-45l28-5c4 36 97 45 98 0-10-56-113-15-118-90-4-57 82-63 122-42 12 7 21 19 24 35" id="R"/><path d="M115-194c55 1 70 41 70 98S169 2 115 4C84 4 66-9 55-30l1 105H24l-1-265h31l2 30c10-21 28-34 59-34zm-8 174c40 0 45-34 45-75s-6-73-45-74c-42 0-51 32-51 76 0 43 10 73 51 73" id="S"/><g id="l"><use transform="matrix(0.05,0,0,0.05,0,0)" xlink:href="#R"/><use transform="matrix(0.05,0,0,0.05,9,0)" xlink:href="#S"/><use transform="matrix(0.05,0,0,0.05,19,0)" xlink:href="#z"/><use transform="matrix(0.05,0,0,0.05,29,0)" xlink:href="#O"/><use transform="matrix(0.05,0,0,0.05,39,0)" xlink:href="#J"/><use transform="matrix(0.05,0,0,0.05,48,0)" xlink:href="#z"/><use transform="matrix(0.05,0,0,0.05,58,0)" xlink:href="#y"/></g><path d="M33 0v-248h34V0H33" id="T"/><g id="m"><use transform="matrix(0.05,0,0,0.05,0,0)" xlink:href="#L"/><use transform="matrix(0.05,0,0,0.05,9,0)" xlink:href="#T"/><use transform="matrix(0.05,0,0,0.05,14,0)" xlink:href="#S"/></g><g id="n"><use transform="matrix(0.05,0,0,0.05,0,0)" xlink:href="#t"/><use transform="matrix(0.05,0,0,0.05,10,0)" xlink:href="#v"/><use transform="matrix(0.05,0,0,0.05,20,0)" xlink:href="#u"/></g><g id="o"><use transform="matrix(0.05,0,0,0.05,0,0)" xlink:href="#L"/><use transform="matrix(0.05,0,0,0.05,9,0)" xlink:href="#T"/><use transform="matrix(0.05,0,0,0.05,14,0)" xlink:href="#S"/></g><g id="p"><use transform="matrix(0.05,0,0,0.05,0,0)" xlink:href="#t"/><use transform="matrix(0.05,0,0,0.05,10,0)" xlink:href="#u"/><use transform="matrix(0.05,0,0,0.05,20,0)" xlink:href="#v"/></g></defs></g></svg>